<svg xmlns="http://www.w3.org/2000/svg" viewBox="0 0 512 512" width="512" height="512">
  <!-- Coral/salmon background with more rounded corners -->
  <rect width="512" height="512" rx="110" ry="110" fill="#F4845F"/>
  
  <g transform="translate(256, 280) scale(1.1)">
    <!-- Ghost body - rounder, less Snapchat -->
    <path d="
      M0,-120
      C75,-120 110,-75 110,-15
      C110,25 108,45 115,60
      C120,70 118,65 112,75
      C105,82 95,72 85,80
      C75,90 70,100 55,100
      C40,100 35,88 20,95
      C5,102 5,102 0,102
      C-5,102 -5,102 -20,95
      C-35,88 -40,100 -55,100
      C-70,100 -75,90 -85,80
      C-95,72 -105,82 -112,75
      C-118,65 -120,70 -115,60
      C-108,45 -110,25 -110,-15
      C-110,-75 -75,-120 0,-120
      Z
    " fill="black"/>
    
    <!-- Two big eyes (coral/salmon colored holes in the black) -->
    <ellipse cx="-38" cy="-30" rx="24" ry="26" fill="#F4845F"/>
    <ellipse cx="38" cy="-30" rx="24" ry="26" fill="#F4845F"/>
    
    <!-- Left antenna -->
    <path d="M-28,-115 C-33,-140 -45,-160 -48,-170" stroke="black" stroke-width="9" stroke-linecap="round" fill="none"/>
    <circle cx="-49" cy="-178" r="13" fill="black"/>
    
    <!-- Right antenna -->
    <path d="M28,-115 C33,-140 45,-160 48,-170" stroke="black" stroke-width="9" stroke-linecap="round" fill="none"/>
    <circle cx="49" cy="-178" r="13" fill="black"/>
  </g>
</svg>
